<svg
   xmlns="http://www.w3.org/2000/svg"
   viewBox="0 0 640 480"
  >
  <rect
     width="1199.9999"
     height="370"
     rx="0"
     ry="9.2144012"
     x="1.0073095e-06"
     y="6.1035156e-05"
     style="opacity:1;fill:#ffffff;fill-opacity:0.99607843;fill-rule:nonzero;stroke:none;stroke-width:0;stroke-linecap:square;stroke-linejoin:miter;stroke-miterlimit:0;stroke-dasharray:none;stroke-dashoffset:0;stroke-opacity:0"
     id="rect8993" />
  <rect
     width="1199.9999"
     height="240"
     rx="0"
     ry="9.2143993"
     x="0"
     y="0"
     style="opacity:1;fill:#282878;fill-opacity:1;fill-rule:nonzero;stroke:none;stroke-width:0;stroke-linecap:square;stroke-linejoin:miter;stroke-miterlimit:0;stroke-dasharray:none;stroke-dashoffset:0;stroke-opacity:0"
     id="rect10449" />
  <rect
     width="1199.9999"
     height="120"
     rx="0"
     ry="9.2143984"
     x="1.0073095e-06"
     y="370"
     style="opacity:1;fill:#ffcb05;fill-opacity:1;fill-rule:nonzero;stroke:none;stroke-width:0;stroke-linecap:square;stroke-linejoin:miter;stroke-miterlimit:0;stroke-dasharray:none;stroke-dashoffset:0;stroke-opacity:0"
     id="rect10447" />

  <g
          transform="translate(-100) scale(0.8)"
     id="g3182">
    <path
       id="path3177"
       d="M 221.40625,165 C 220.48367,169.85824 220,174.87457 220,180 C 220,224.16 255.84,260 300,260 C 344.16,260 380,224.16 380,180 C 380,174.87457 379.51633,169.85824 378.59375,165 C 371.56752,201.99972 339.03457,230 300,230 C 260.96543,230 228.43248,201.99972 221.40625,165 z"
       style="opacity:1;fill:#ffcb05;fill-opacity:1;fill-rule:evenodd;stroke:none;stroke-width:0.60000002;stroke-linejoin:miter;marker:none;marker-start:none;marker-mid:none;marker-end:none;stroke-miterlimit:4;stroke-dasharray:none;stroke-dashoffset:0;stroke-opacity:1;visibility:visible;display:inline;overflow:visible;enable-background:accumulate" />
    <path
       id="path12639"
       style="opacity:1;fill:#ffcb05;fill-opacity:1;fill-rule:evenodd;stroke:none;stroke-width:0;stroke-linecap:butt;stroke-linejoin:miter;stroke-miterlimit:4;stroke-dasharray:none;stroke-opacity:1"
       d="M 299.3603,20 C 299.54463,21.433318 299.83987,21.999793 300.16646,22.90799 C 301.05399,25.37615 302.60998,27.01673 303.07299,27.718333 C 303.78789,28.801588 304.37085,30.070453 304.70378,31.088863 C 305.07721,32.231113 305.32222,33.166076 305.08989,34.636066 C 304.98185,35.31954 304.67606,37.011368 304.45624,37.890603 C 304.2414,38.750046 304.17061,39.801239 304.09418,40.600575 C 303.99517,41.635911 303.94566,42.324709 303.94566,43.211532 C 303.94566,44.261042 304.27883,44.884632 304.75329,45.781472 C 305.37552,46.957672 305.79867,47.572522 306.43358,48.441942 C 306.72884,48.846242 308.29719,51.652782 308.64145,52.897232 C 309.05431,54.389562 308.95548,55.411062 308.80695,57.318552 C 308.72412,58.382492 308.1148,60.480322 307.83382,61.604232 C 307.60155,62.533292 307.20396,63.283582 306.99367,64.124662 C 306.76192,65.051672 306.36708,65.580132 306.36708,66.636612 C 306.36708,67.727862 306.86494,68.615652 307.55376,69.445592 C 308.44813,70.523182 308.94298,71.193602 309.79416,71.826012 C 310.75509,71.389332 311.29716,70.658762 312.07702,69.693122 C 312.70577,68.914602 313.14391,67.759782 313.08972,66.834632 C 313.03521,65.904022 312.9381,65.078382 312.73468,64.264692 C 312.51992,63.405652 312.1491,62.454812 312.1491,61.513712 C 312.1491,60.610792 312.14061,59.925352 312.43764,58.853242 C 312.74697,57.736802 312.94392,57.231292 313.57482,56.143282 C 314.04921,55.325172 314.82117,53.680592 315.13209,52.303152 C 315.42746,50.994502 315.37314,48.831362 314.99351,47.399642 C 314.66025,46.142732 312.78417,45.081152 312.73468,42.56091 C 312.71909,41.766518 313.58157,40.391409 314.11939,39.775955 C 314.51907,39.318584 316.79538,36.819914 316.79538,37.099961 C 316.79538,37.930206 317.0469,39.171791 317.4955,39.620401 C 318.20278,40.327666 319.11527,41.301557 319.73592,42.140837 C 320.18795,42.752161 320.73315,43.815932 320.9961,44.521252 C 321.29957,45.335172 321.48269,45.894792 321.6312,47.627272 C 321.71092,48.557352 321.38367,51.409302 321.13615,52.642662 C 320.97942,53.423602 320.96466,54.527562 321.41619,55.443152 C 321.90573,56.435812 322.59801,57.476032 323.32701,58.187102 C 324.06464,58.906562 324.40019,59.267302 325.05682,59.923932 C 325.58923,60.456342 326.21499,61.422602 326.73713,62.304352 C 327.72726,63.976492 328.97041,66.388262 329.23352,68.206482 C 329.50356,70.072542 329.67909,71.156292 329.67909,73.036722 C 329.67909,73.923542 329.60085,75.611152 329.48105,76.291262 C 329.12351,78.321272 328.7997,78.901932 328.45139,79.722452 C 327.95284,80.896892 327.47295,81.882322 326.31703,83.308012 C 325.7316,84.030072 322.82472,86.307402 321.55622,87.088662 C 320.5168,87.728832 318.33042,89.209142 316.79538,89.749132 C 314.68311,90.492172 312.00878,90.910782 311.05439,91.149372 C 310.03098,91.405222 308.11723,91.602302 307.14075,92.105522 C 306.20781,92.586282 303.87575,94.996352 303.31349,95.394032 C 302.05499,96.284172 299.84149,96.576502 298.41822,95.868152 C 297.6478,95.484732 296.39076,93.499162 295.63326,92.913152 C 294.405,91.962972 292.17498,91.740972 288.63547,91.283352 C 287.22915,91.101532 286.04357,90.914652 284.73126,90.582242 C 284.17839,90.442192 281.59356,89.647742 280.7101,89.206022 C 279.84442,88.773182 277.63614,87.679602 276.1883,86.528572 C 274.74081,85.377802 273.74766,83.662692 273.3143,82.944482 C 272.88833,82.238512 271.44598,78.973432 271.14744,77.567012 C 270.85404,76.184852 270.32283,72.831182 270.32283,71.834502 C 270.32283,69.907322 270.2818,68.261932 270.57885,66.291522 C 270.7228,65.336552 270.91947,63.840922 271.36245,62.954972 C 271.66521,62.349442 272.50518,60.467422 272.96921,59.848942 C 273.49431,59.149052 273.65907,58.797002 274.30296,58.004602 C 274.79598,57.397862 276.29195,56.033082 276.84888,54.993482 C 277.24725,54.249862 277.37646,51.917932 277.37646,51.095362 C 277.37646,50.100942 277.30996,48.292782 277.30996,47.354262 C 277.30996,46.612102 278.44687,44.811532 279.1133,44.145102 C 279.69447,43.563922 280.65409,42.57882 281.32965,41.903261 C 282.13779,41.095147 283.21049,40.048208 283.87557,39.183341 C 284.64876,38.177919 285.63533,37.027755 285.70997,37.38001 C 285.78982,37.756908 286.17663,39.529215 286.27008,40.740599 C 286.56711,44.591542 285.98042,45.846822 285.42992,46.761642 C 284.8437,47.735842 284.25885,48.165752 284.16971,49.282082 C 284.07088,50.519342 284.03562,51.018612 284.16971,51.802522 C 284.34546,52.829952 285.07713,53.990722 285.66045,54.768512 C 286.29097,55.609202 287.16433,56.342262 287.6293,57.685002 C 287.73198,57.981502 288.38741,59.891332 288.43692,61.817782 C 288.46108,62.757882 288.16446,64.108492 287.95036,64.964812 C 287.81382,65.511012 287.59111,67.047032 287.81034,67.625282 C 288.35364,69.058432 289.0204,69.670142 289.49064,70.145712 C 290.31354,70.977972 291.57414,72.276032 291.87104,71.826012 C 292.26543,71.228202 292.58366,70.280572 293.78332,67.355172 C 294.23317,66.258242 294.07317,64.344872 293.79184,63.219492 C 293.5734,62.345752 292.19721,58.715512 291.87104,57.403502 C 291.64344,56.487932 291.26616,55.632442 290.75085,54.322962 C 289.99476,52.401642 290.86346,50.171452 291.3039,49.290572 C 291.73603,48.426362 292.77271,47.261682 293.37176,46.662632 C 294.05772,45.976672 295.28665,44.368472 295.72816,43.365622 C 296.39008,41.862093 296.31397,40.975963 296.31083,39.95845 C 296.3073,38.821692 295.90362,37.981653 295.65171,37.099961 C 295.33665,35.997257 294.94828,35.126459 294.67155,34.019426 C 294.44394,33.10904 294.24756,32.28629 294.00392,31.259953 C 293.55837,29.38301 294.36269,27.043265 294.81155,25.898015 C 295.16684,24.99152 296.10612,23.12501 296.86242,22.264415 C 297.51018,21.527315 298.41889,20.593288 299.3603,20 z" />
    <path
       transform="matrix(1,0,0,1.0909091,0,-9.0909091)"
       d="M 360,155 A 60,55 0 1 1 240,155 A 60,55 0 1 1 360,155 z"
       id="path3171"
       style="opacity:1;fill:#ffcb05;fill-opacity:1;fill-rule:evenodd;stroke:none;stroke-width:0.60000002;stroke-linejoin:miter;marker:none;marker-start:none;marker-mid:none;marker-end:none;stroke-miterlimit:4;stroke-dasharray:none;stroke-dashoffset:0;stroke-opacity:1;visibility:visible;display:inline;overflow:visible;enable-background:accumulate"
/>
  </g>
</svg>
